<svg xmlns="http://www.w3.org/2000/svg" width="23" height="21" fill="none" stroke="#1976d2" stroke-width="2" stroke-linecap="round"><path d="m15.511 19.743-2.012-1.175-2.012-1.175a.972.972 0 0 0-.99 0l-2.011 1.175-2.011 1.175c-.232.135-.507.17-.764.096s-.475-.251-.606-.491a1.073 1.073 0 0 1-.118-.35 1.08 1.08 0 0 1 .008-.371l.457-2.345.457-2.346a1.086 1.086 0 0 0-.026-.528 1.04 1.04 0 0 0-.274-.446l-1.7-1.62-1.7-1.62a1.05 1.05 0 0 1-.295-.503 1.08 1.08 0 0 1 .015-.589c.06-.191.171-.36.321-.486a.99.99 0 0 1 .524-.228l2.294-.275 2.293-.274c.172-.02.336-.086.476-.192s.252-.247.324-.41l.96-2.176.96-2.176c.055-.125.133-.238.23-.331a.998.998 0 0 1 .724-.279.98.98 0 0 1 .383.094 1.02 1.02 0 0 1 .292.21c.085.088.153.19.203.303l.96 2.176.96 2.176a1.04 1.04 0 0 0 .324.409.99.99 0 0 0 .476.192l2.294.274 2.293.275a.99.99 0 0 1 .524.228c.15.127.261.295.321.486a1.08 1.08 0 0 1 .016.589 1.05 1.05 0 0 1-.294.504" stroke-miterlimit="10"/><path d="M18.537 11.88v6.48m3.24-3.24h-6.48"/></svg>