<svg xmlns="http://www.w3.org/2000/svg" width="28" height="28"><path d="m16.71 5.63-1.754 3.121a1.42 1.42 0 0 0-.171 1.007c.07.347.265.65.543.843l1.423 1.025-.085.279c-.659 2.505-2.053 4.718-3.976 6.313l-.204.185-.953-.688-.47-.338a1.19 1.19 0 0 0-.935-.222 1.25 1.25 0 0 0-.809.549l-2.073 2.889a1.415 1.415 0 0 0-.23.995 1.36 1.36 0 0 0 .494.878l1.077.683.014-.024a3.7 3.7 0 0 0 1.075.385c.339.065.685.084 1.029.056 2.647-.206 4.781-1.963 7.364-6.065 3.569-5.668 2.537-9.42 2.491-9.582a4.549 4.549 0 0 0-.439-1.002 4.15 4.15 0 0 0-.735-.918l.01-.018-.959-.781c-.282-.188-.623-.248-.946-.168s-.605.294-.781.595z" fill="none" stroke="#1976d2"/></svg>