<svg width="20" height="20" viewBox="0 0 20 20" fill="none" xmlns="http://www.w3.org/2000/svg"><path d="M15.363 5.549a2.277 2.277 0 0 0-.312-.73c-.145-.26-.866-1.063-1.262-1.302a.936.936 0 0 0-1.355.266c-.38.55-1.1 1.653-1.48 2.203-.329.43-.216 1.061.214 1.385.313.232 1.215.884 1.215.884-.893 3.121-3.62 4.812-3.62 4.812s-.897-.693-1.214-.884c-.43-.324-1.02-.247-1.39.18a71.56 71.56 0 0 1-1.755 2.016c-.37.427-.295 1.013.132 1.378.35.277.86.649 1.676.838.245.06.534.084.827.066 2.085-.042 3.815-1.273 6.02-4.166 3.01-4.03 2.335-6.82 2.304-6.946Z" fill="#1975D2"/></svg>