<svg width="20" height="20" viewBox="0 0 20 20" fill="none" xmlns="http://www.w3.org/2000/svg"><path d="M6.256 7.238H4.575a.397.397 0 0 1-.21-.06.42.42 0 0 1-.15-.165.441.441 0 0 1 .02-.437l2.5-3.887a.417.417 0 0 1 .148-.139.397.397 0 0 1 .534.139l2.5 3.886a.438.438 0 0 1-.13.601.397.397 0 0 1-.21.061H7.895v3.486a3.702 3.702 0 0 0-1.638 1.22V7.237Zm9.397 4.61L11.92 9.246a.4.4 0 0 0-.578.137.441.441 0 0 0-.058.22v1.75H9.15a2.84 2.84 0 0 0-2.046.883 3.079 3.079 0 0 0-.848 2.13v2.282c0 .226.087.443.24.603.154.16.362.25.58.25.217 0 .425-.09.579-.25a.871.871 0 0 0 .24-.603v-2.286c0-.346.133-.678.368-.923s.554-.382.886-.383h2.132v1.749c0 .077.02.153.058.22.038.066.093.12.158.156a.398.398 0 0 0 .42-.02l3.734-2.603a.441.441 0 0 0 .002-.708Z" fill="#1975D2"/></svg>