<svg xmlns="http://www.w3.org/2000/svg" width="20" height="20" fill="#fff"><path d="M7.76 5.12v5.031a3.97 3.97 0 0 0-1.761 1.25V5.114a.88.88 0 0 1 .881-.881.88.88 0 0 1 .881.881v.006z"/><path d="M9.933 5.458 7.245 1.444a.44.44 0 0 0-.732 0L3.825 5.456a.44.44 0 0 0 .365.686h5.375a.44.44 0 0 0 .368-.685zm-3.059 12.57a.875.875 0 0 1-.619-.257.89.89 0 0 1-.19-.284.875.875 0 0 1-.067-.335v-3.25a3.113 3.113 0 0 1 .912-2.198 3.11 3.11 0 0 1 2.198-.912h4.826a.88.88 0 1 1 0 1.762H9.109a1.35 1.35 0 0 0-1.349 1.349v3.25a.867.867 0 0 1-.261.622.88.88 0 0 1-.288.189.87.87 0 0 1-.338.063z"/><path d="m13.016 14.728 4.013-2.687a.44.44 0 0 0 .194-.366.44.44 0 0 0-.194-.366l-4.013-2.688a.44.44 0 0 0-.453-.022.44.44 0 0 0-.233.389v5.375a.44.44 0 0 0 .234.388.44.44 0 0 0 .452-.023z"/></svg>