<svg width="20" height="20" viewBox="0 0 20 20" fill="none" xmlns="http://www.w3.org/2000/svg"><path d="M14.629 13.102a2.19 2.19 0 0 0-1.476.58l-5.37-3.125a2.44 2.44 0 0 0 .069-.527c0-.18-.03-.354-.068-.527l5.308-3.095a2.256 2.256 0 0 0 3.795-1.65A2.256 2.256 0 0 0 14.629 2.5a2.256 2.256 0 0 0-2.26 2.259c0 .18.03.354.068.527L7.13 8.381a2.25 2.25 0 0 0-1.536-.61 2.256 2.256 0 0 0-2.26 2.26c0 1.25 1.01 2.258 2.26 2.258a2.25 2.25 0 0 0 1.536-.61l5.361 3.133c-.037.158-.06.324-.06.49A2.2 2.2 0 0 0 14.63 17.5a2.201 2.201 0 0 0 2.199-2.199 2.201 2.201 0 0 0-2.2-2.199Z" fill="#1975D2"/></svg>