<svg xmlns="http://www.w3.org/2000/svg" width="28" height="28" fill="#00000000" stroke="#1976d2"><path d="M19.912 16.521a2.74 2.74 0 0 0 2.739-2.739 2.74 2.74 0 0 0-2.739-2.739 2.74 2.74 0 0 0-2.739 2.739 2.74 2.74 0 0 0 2.739 2.739zM9.739 9.478a2.74 2.74 0 0 0 2.739-2.739A2.74 2.74 0 0 0 9.739 4 2.74 2.74 0 0 0 7 6.739a2.74 2.74 0 0 0 2.739 2.739zm0 14.086a2.74 2.74 0 0 0 2.739-2.739 2.74 2.74 0 0 0-2.739-2.739A2.74 2.74 0 0 0 7 20.825a2.74 2.74 0 0 0 2.739 2.739zM11.5 8.5l6 4m-5.5 7 6-4"/></svg>